<svg xmlns="http://www.w3.org/2000/svg" width="920" height="560" viewBox="0 0 920 560">
  <rect width="920" height="560" fill="white" />
  <text x="460.0" y="36" text-anchor="middle" font-family="sans-serif" font-size="24" fill="#111">SD3 512x512: time per image vs num_outputs_per_prompt</text>
  <text x="460.0" y="540" text-anchor="middle" font-family="sans-serif" font-size="16" fill="#444">num_outputs_per_prompt</text>
  <text x="24" y="280.0" text-anchor="middle" font-family="sans-serif" font-size="16" fill="#444" transform="rotate(-90 24 280.0)">Median time per image (ms)</text>
  <line x1="90" y1="480.00" x2="880" y2="480.00" stroke="#d8d8d8" stroke-width="1" /><text x="80" y="484.00" text-anchor="end" font-family="sans-serif" font-size="14" fill="#444">0.0</text><line x1="90" y1="398.00" x2="880" y2="398.00" stroke="#d8d8d8" stroke-width="1" /><text x="80" y="402.00" text-anchor="end" font-family="sans-serif" font-size="14" fill="#444">754.1</text><line x1="90" y1="316.00" x2="880" y2="316.00" stroke="#d8d8d8" stroke-width="1" /><text x="80" y="320.00" text-anchor="end" font-family="sans-serif" font-size="14" fill="#444">1508.2</text><line x1="90" y1="234.00" x2="880" y2="234.00" stroke="#d8d8d8" stroke-width="1" /><text x="80" y="238.00" text-anchor="end" font-family="sans-serif" font-size="14" fill="#444">2262.3</text><line x1="90" y1="152.00" x2="880" y2="152.00" stroke="#d8d8d8" stroke-width="1" /><text x="80" y="156.00" text-anchor="end" font-family="sans-serif" font-size="14" fill="#444">3016.4</text><line x1="90" y1="70.00" x2="880" y2="70.00" stroke="#d8d8d8" stroke-width="1" /><text x="80" y="74.00" text-anchor="end" font-family="sans-serif" font-size="14" fill="#444">3770.4</text><line x1="90.00" y1="70" x2="90.00" y2="480" stroke="#efefef" stroke-width="1" /><text x="90.00" y="508" text-anchor="middle" font-family="sans-serif" font-size="14" fill="#444">1</text><line x1="142.67" y1="70" x2="142.67" y2="480" stroke="#efefef" stroke-width="1" /><text x="142.67" y="508" text-anchor="middle" font-family="sans-serif" font-size="14" fill="#444">2</text><line x1="248.00" y1="70" x2="248.00" y2="480" stroke="#efefef" stroke-width="1" /><text x="248.00" y="508" text-anchor="middle" font-family="sans-serif" font-size="14" fill="#444">4</text><line x1="458.67" y1="70" x2="458.67" y2="480" stroke="#efefef" stroke-width="1" /><text x="458.67" y="508" text-anchor="middle" font-family="sans-serif" font-size="14" fill="#444">8</text><line x1="669.33" y1="70" x2="669.33" y2="480" stroke="#efefef" stroke-width="1" /><text x="669.33" y="508" text-anchor="middle" font-family="sans-serif" font-size="14" fill="#444">12</text><line x1="880.00" y1="70" x2="880.00" y2="480" stroke="#efefef" stroke-width="1" /><text x="880.00" y="508" text-anchor="middle" font-family="sans-serif" font-size="14" fill="#444">16</text>
  <line x1="90" y1="480" x2="880" y2="480" stroke="#555" stroke-width="2" />
  <line x1="90" y1="70" x2="90" y2="480" stroke="#555" stroke-width="2" />
  <polyline fill="none" stroke="#1473e6" stroke-width="3" points="90.00,70.00 142.67,280.54 248.00,362.18 458.67,404.34 669.33,417.21 880.00,423.43" />
  <circle cx="90.00" cy="70.00" r="5" fill="#1473e6" stroke="white" stroke-width="2" /><circle cx="142.67" cy="280.54" r="5" fill="#1473e6" stroke="white" stroke-width="2" /><circle cx="248.00" cy="362.18" r="5" fill="#1473e6" stroke="white" stroke-width="2" /><circle cx="458.67" cy="404.34" r="5" fill="#1473e6" stroke="white" stroke-width="2" /><circle cx="669.33" cy="417.21" r="5" fill="#1473e6" stroke="white" stroke-width="2" /><circle cx="880.00" cy="423.43" r="5" fill="#1473e6" stroke="white" stroke-width="2" />
  <text x="90.00" y="58.00" text-anchor="middle" font-family="sans-serif" font-size="13" fill="#1473e6">3770.4</text><text x="142.67" y="268.54" text-anchor="middle" font-family="sans-serif" font-size="13" fill="#1473e6">1834.3</text><text x="248.00" y="350.18" text-anchor="middle" font-family="sans-serif" font-size="13" fill="#1473e6">1083.5</text><text x="458.67" y="392.34" text-anchor="middle" font-family="sans-serif" font-size="13" fill="#1473e6">695.8</text><text x="669.33" y="405.21" text-anchor="middle" font-family="sans-serif" font-size="13" fill="#1473e6">577.5</text><text x="880.00" y="411.43" text-anchor="middle" font-family="sans-serif" font-size="13" fill="#1473e6">520.2</text>
</svg>
